<svg id="Layer_1" xmlns="http://www.w3.org/2000/svg" width="600" height="80" viewBox="0 0 600 80"><style>.st0{fill:#fff}.st1{fill:#3e3a37}.st2{fill:#a5003b}.st3{fill:none;stroke:#fff;stroke-width:3;stroke-miterlimit:10}.st4{fill:#3d3838}.st5{fill:none;stroke:#3d3838;stroke-width:1.5;stroke-miterlimit:10}.st6,.st7{opacity:.66;fill:#3d3838}.st7{opacity:.33}.st8{fill:none;stroke:#3d3838;stroke-width:1.5;stroke-linecap:round;stroke-miterlimit:10}.st10,.st9{opacity:.5;fill:#3d3838}.st10{opacity:.3}.st11,.st12,.st13{opacity:.6;fill:#3d3838}.st12,.st13{opacity:.2}.st13{opacity:.4}.st14{fill:none;stroke:#3d3838;stroke-width:1.5;stroke-linecap:round;stroke-linejoin:round;stroke-miterlimit:10}</style><path class="st0" d="M103.4 49l-3.5 3.5-3.5-3.5h-10v22h5.2v-3h-2.2V52h5v4h4v3.9h3V56h4v-4h5v16H108v3h5.4V49z"/><path class="st1" d="M6.9 8h4v3h-4zM14.9 8h18v3h-18zM96.9 13h4v3h-4zM95.9 24h7v3h-7zM95.9 18h4v3h-4z"/><path class="st1" d="M97.9 18h3v9h-3zM6.9 15h4v3h-4zM14.9 15h18v3h-18zM6.9 22h4v3h-4zM14.9 22h18v3h-18zM6.9 29h4v3h-4zM14.9 29h18v3h-18z"/><path class="st1" d="M98.9 10.5c5.5 0 10 4.5 10 10s-4.5 10-10 10-10-4.5-10-10 4.5-10 10-10m0-3c-7.2 0-13 5.8-13 13s5.8 13 13 13 13-5.8 13-13-5.8-13-13-13zM138.9 8h3v24h-3z"/><path class="st1" d="M135.9 8h9v3h-9zM125.9 8h8v3h-8zM125.9 15h8v3h-8zM125.9 22h8v3h-8zM125.9 29h8v3h-8zM146.9 8h8v3h-8zM146.9 15h8v3h-8zM146.9 22h8v3h-8zM146.9 29h8v3h-8zM135.9 29h9v3h-9zM166.9 29h25v3h-25z"/><path class="st1" d="M188.9 24h3v8h-3zM166.9 24h3v8h-3zM177.9 8h3v15.6h-3z"/><path class="st1" d="M179.5 26l-2.3-2.1 8.5-7.9 2.2 2.1z"/><path class="st1" d="M181.7 23.9l-2.2 2.1-8.5-7.9 2.3-2.1z"/><path class="st2" d="M446.9 69h25v3h-25z"/><path class="st2" d="M468.9 64h3v8h-3zM446.9 64h3v8h-3zM457.9 48h3v15.6h-3z"/><path class="st2" d="M459.5 66l-2.3-2.1 8.5-7.9 2.2 2.1z"/><path class="st2" d="M461.7 63.9l-2.2 2.1-8.5-7.9 2.3-2.1z"/><path class="st1" d="M206.9 10h26v3h-26zM206.9 19h26v3h-26zM206.9 28h26v3h-26z"/><path class="st1" d="M221.4 15c-1.9 0-3.5-1.6-3.5-3.5s1.6-3.5 3.5-3.5 3.5 1.6 3.5 3.5-1.5 3.5-3.5 3.5zM212.4 24c-1.9 0-3.5-1.6-3.5-3.5s1.6-3.5 3.5-3.5 3.5 1.6 3.5 3.5-1.5 3.5-3.5 3.5zM225.4 33c-1.9 0-3.5-1.6-3.5-3.5s1.6-3.5 3.5-3.5 3.5 1.6 3.5 3.5-1.5 3.5-3.5 3.5z"/><path class="st0" d="M18.9 52v16h-9V55.2l3.2-3.2h5.8m3-3h-10l-5 5v17h15V49z"/><path class="st0" d="M9.9 52h4v4h-4zM65.4 52v16h-11V55.2l3.2-3.2h7.8m3-3h-12l-5 5v17h17V49z"/><path class="st0" d="M58.4 52h-4v4h4v-4zM27.7 52l3.2 3.2V68h-9V52h5.8m1.2-3h-10v22h15V54l-5-5z"/><path class="st0" d="M27 52h4v4h-4z"/><path class="st3" d="M174.8 48.3l11.5 11.5-11.6 11.5M232.1 53.7l-12.4 12.4-12.5-12.5M247.2 66l12.4-12.4 12.5 12.5M145.1 48.3l-11.5 11.5 11.6 11.5M288.8 61.4v9.3h9.3M298.1 61.4l-9.3 9.3M311.4 57.4v-9.3h-9.3M302.1 57.4l9.3-9.3M329.8 49.4L352 71.5M352 49.4l-22.2 22.1"/><path class="st0" d="M367.9 48h24v3h-24zM367.9 57h24v3h-24zM367.9 66h24v3h-24z"/><path class="st3" d="M96.1 62.4l6.8 6.8-7 7"/><path class="st0" d="M350.8 19.1l-2.8 1c.3.9.5 1.9.5 2.9 0 4.7-3.8 8.5-8.5 8.5-.9 0-1.7-.1-2.5-.4-.4-.1-.7-.3-1-.4-.1-.1-.3-.1-.4-.2-.2-.1-.4-.2-.6-.4-.3-.2-.5-.3-.8-.5 0 0-.1 0-.1-.1-1.9-1.6-3-3.9-3-6.5 0-4.7 3.8-8.4 8.4-8.5l-4.8 3.9 1.9 2.3 9.5-7.7-9.7-7.9-1.9 2.3 4.9 4c-6.2.1-11.3 5.2-11.3 11.5 0 4.7 2.8 8.8 7 10.6.3.1.7.3 1 .4 1.1.3 2.2.5 3.4.5 6.3 0 11.5-5.2 11.5-11.5 0-1.2-.3-2.5-.7-3.8zM369.2 19.1l2.8 1c-.3.9-.5 1.9-.5 2.9 0 4.7 3.8 8.5 8.5 8.5.9 0 1.7-.1 2.5-.4.4-.1.7-.3 1-.4.1-.1.3-.1.4-.2.2-.1.4-.2.6-.4.3-.2.5-.3.8-.5 0 0 .1 0 .1-.1 1.9-1.6 3-3.9 3-6.5 0-4.7-3.8-8.4-8.4-8.5l4.8 3.9-1.9 2.3-9.5-7.7 9.7-7.9 1.9 2.3-4.9 4c6.2.1 11.3 5.2 11.3 11.5 0 4.7-2.8 8.8-7 10.6-.3.1-.7.3-1 .4-1.1.3-2.2.5-3.4.5-6.3 0-11.5-5.2-11.5-11.5 0-1.1.2-2.5.7-3.8zM426.7 12.6c5.2 3.5 6.6 10.6 3.1 15.8-2.6 3.9-7.2 5.8-11.7 5-.4-.1-.7-.1-1.1-.2-1.1-.3-2.1-.8-3.1-1.4-5.3-3.5-6.8-10.6-3.3-15.9.8-1.1 1.7-2.1 2.8-2.9l1.8 2.4c-.8.6-1.5 1.3-2 2.2-2.6 3.9-1.5 9.2 2.4 11.8.7.5 1.5.8 2.3 1.1.4.1.7.2 1.1.2.2 0 .3 0 .5.1H421.2c2.4-.3 4.7-1.6 6.1-3.8 2.6-3.9 1.5-9.1-2.4-11.7l1.8-2.7z"/><path transform="rotate(-45.001 268.574 27.702)" class="st0" d="M267.1 21.7h3v12.1h-3z"/><circle class="st3" cx="258.5" cy="17.8" r="8.4"/><path class="st3" d="M254.9 17.5h6.9M258.4 14.1V21"/><path class="st1" d="M71.9 30.9l-7.4-7.4c1.2-1.6 1.8-3.6 1.8-5.7 0-5.5-4.4-9.9-9.9-9.9s-9.9 4.4-9.9 9.9 4.4 9.9 9.9 9.9c2.2 0 4.3-.8 6-2l7.3 7.3 2.2-2.1zM49.6 17.8c0-3.8 3.1-6.9 6.9-6.9s6.9 3.1 6.9 6.9-3.1 6.9-6.9 6.9-6.9-3.1-6.9-6.9z"/><g><path transform="rotate(-45.001 308.574 27.703)" class="st0" d="M307.1 21.7h3v12.1h-3z"/><circle class="st3" cx="298.5" cy="17.8" r="8.4"/><path class="st3" d="M294.9 17.5h6.9"/></g><path class="st0" d="M424.9 20.7l-.1-.3-4.7-12-4.7 12v-.1c-.2.5-.3 1-.3 1.6 0 2.7 2.2 4.9 4.9 4.9s4.9-2.2 4.9-4.9c.2-.4.1-.8 0-1.2zm-4.8 3.3c-1.2 0-2.2-1-2.2-2.2 0-1.2 1-2.2 2.2-2.2 1.2 0 2.2 1 2.2 2.2 0 1.2-.9 2.2-2.2 2.2z"/><g><path class="st0" d="M414.5 49.5h12v19h-12z"/></g><path class="st3" d="M427.9 52.5h1.6v13h-1.6M432.9 52.5h1.6v13h-1.6M412.8 52.5h-1.6v13h1.6M407.8 52.5h-1.6v13h1.6"/><path class="st0" d="M471.9 30.9l-7.4-7.4c1.2-1.6 1.8-3.6 1.8-5.7 0-5.5-4.4-9.9-9.9-9.9s-9.9 4.4-9.9 9.9 4.4 9.9 9.9 9.9c2.2 0 4.3-.8 6-2l7.3 7.3 2.2-2.1zm-22.3-13.1c0-3.8 3.1-6.9 6.9-6.9s6.9 3.1 6.9 6.9-3.1 6.9-6.9 6.9-6.9-3.1-6.9-6.9z"/><g><path class="st4" d="M499.6 12c-4.4 0-8 3.6-8 8s3.6 8 8 8 8-3.6 8-8-3.6-8-8-8zm0 14.5v-13c3.6 0 6.5 2.9 6.5 6.5s-2.9 6.5-6.5 6.5z"/></g><g><path class="st5" d="M490 52.3h19.2v17.5H490z"/><path class="st4" d="M490.8 52.5h4.4V70h-4.4z"/><path class="st6" d="M495.2 52.5h4.4V70h-4.4z"/><path class="st7" d="M499.6 52.5h4.4V70h-4.4z"/></g><g><path class="st8" d="M580.7 10.3v.9M580.7 28.8v.9"/><circle class="st4" cx="580.7" cy="20" r="5.5"/><path class="st8" d="M587.6 13.2l-.6.6M574.5 26.2l-.6.6M587.6 26.8l-.6-.6M574.5 13.8l-.6-.6M590.4 20h-.8M571.9 20h-.8"/></g><g><path class="st4" d="M531.3 12h3.8v3.8h-3.8z"/><path class="st9" d="M537.4 12h3.8v3.8h-3.8z"/><path class="st10" d="M543.5 12h3.8v3.8h-3.8z"/><path class="st11" d="M531.3 18.1h3.8v3.8h-3.8z"/><path class="st12" d="M537.4 18.1h3.8v3.8h-3.8z"/><path class="st11" d="M543.5 18.1h3.8v3.8h-3.8z"/><path class="st13" d="M531.3 24.2h3.8V28h-3.8z"/><path class="st9" d="M537.4 24.2h3.8V28h-3.8z"/><path class="st4" d="M543.5 24.2h3.8V28h-3.8z"/></g><g><path class="st5" d="M572.1 54.5h14.5v13.1h-14.5z"/></g><g><path class="st14" d="M542.2 53.5l-3.4 2.4 3.4 2.4"/><path class="st14" d="M540.7 55.7c3.5 0 6.4 2.9 6.4 6.4 0 3.5-2.9 6.4-6.4 6.4-3.5 0-6.4-2.9-6.4-6.4"/></g><g><path class="st4" d="M572.1 67.7V54.5h14.5"/></g></svg>