<?xml version="1.0" encoding="utf-8"?>
<!-- Generator: Adobe Illustrator 21.1.0, SVG Export Plug-In . SVG Version: 6.00 Build 0)  -->
<svg version="1.1" id="Layer_1" xmlns="http://www.w3.org/2000/svg" xmlns:xlink="http://www.w3.org/1999/xlink" x="0px" y="0px"
	 width="600px" height="80px" viewBox="0 0 600 80" style="enable-background:new 0 0 600 80;" xml:space="preserve">
<style type="text/css">
	.st0{fill:#FFFFFF;}
	.st1{fill:#3E3A37;}
	.st2{fill:#A5003B;}
	.st3{fill:none;stroke:#FFFFFF;stroke-width:3;stroke-miterlimit:10;}
	.st4{fill:#3D3838;}
	.st5{fill:none;stroke:#3D3838;stroke-width:1.5;stroke-miterlimit:10;}
	.st6{opacity:0.66;fill:#3D3838;}
	.st7{opacity:0.33;fill:#3D3838;}
	.st8{fill:none;stroke:#3D3838;stroke-width:1.5;stroke-linecap:round;stroke-miterlimit:10;}
	.st9{opacity:0.5;fill:#3D3838;}
	.st10{opacity:0.3;fill:#3D3838;}
	.st11{opacity:0.6;fill:#3D3838;}
	.st12{opacity:0.2;fill:#3D3838;}
	.st13{opacity:0.4;fill:#3D3838;}
	.st14{fill:none;stroke:#3D3838;stroke-width:1.5;stroke-linecap:round;stroke-linejoin:round;stroke-miterlimit:10;}
</style>
<g>
	<polygon class="st0" points="103.4,49 99.9,52.5 96.4,49 86.4,49 86.4,71 91.6,71 91.6,68 89.4,68 89.4,52 94.4,52 94.4,56 
		98.4,56 98.4,59.9 101.4,59.9 101.4,56 105.4,56 105.4,52 110.4,52 110.4,68 108,68 108,71 113.4,71 113.4,49 	"/>
</g>
<g>
	<rect x="6.9" y="8" class="st1" width="4" height="3"/>
</g>
<g>
	<rect x="14.9" y="8" class="st1" width="18" height="3"/>
</g>
<g>
	<g>
		<rect x="96.9" y="13" class="st1" width="4" height="3"/>
	</g>
	<g>
		<rect x="95.9" y="24" class="st1" width="7" height="3"/>
	</g>
	<g>
		<rect x="95.9" y="18" class="st1" width="4" height="3"/>
	</g>
	<g>
		<rect x="97.9" y="18" class="st1" width="3" height="9"/>
	</g>
</g>
<g>
	<rect x="6.9" y="15" class="st1" width="4" height="3"/>
</g>
<g>
	<rect x="14.9" y="15" class="st1" width="18" height="3"/>
</g>
<g>
	<rect x="6.9" y="22" class="st1" width="4" height="3"/>
</g>
<g>
	<rect x="14.9" y="22" class="st1" width="18" height="3"/>
</g>
<g>
	<rect x="6.9" y="29" class="st1" width="4" height="3"/>
</g>
<g>
	<rect x="14.9" y="29" class="st1" width="18" height="3"/>
</g>
<g>
	<path class="st1" d="M98.9,10.5c5.5,0,10,4.5,10,10s-4.5,10-10,10s-10-4.5-10-10S93.4,10.5,98.9,10.5 M98.9,7.5
		c-7.2,0-13,5.8-13,13s5.8,13,13,13s13-5.8,13-13S106.1,7.5,98.9,7.5L98.9,7.5z"/>
</g>
<rect x="138.9" y="8" class="st1" width="3" height="24"/>
<rect x="135.9" y="8" class="st1" width="9" height="3"/>
<rect x="125.9" y="8" class="st1" width="8" height="3"/>
<rect x="125.9" y="15" class="st1" width="8" height="3"/>
<rect x="125.9" y="22" class="st1" width="8" height="3"/>
<rect x="125.9" y="29" class="st1" width="8" height="3"/>
<rect x="146.9" y="8" class="st1" width="8" height="3"/>
<rect x="146.9" y="15" class="st1" width="8" height="3"/>
<rect x="146.9" y="22" class="st1" width="8" height="3"/>
<rect x="146.9" y="29" class="st1" width="8" height="3"/>
<rect x="135.9" y="29" class="st1" width="9" height="3"/>
<g>
	<rect x="166.9" y="29" class="st1" width="25" height="3"/>
	<rect x="188.9" y="24" class="st1" width="3" height="8"/>
	<rect x="166.9" y="24" class="st1" width="3" height="8"/>
</g>
<g>
	<rect x="177.9" y="8" class="st1" width="3" height="15.6"/>
	<polygon class="st1" points="179.5,26 177.2,23.9 185.7,16 187.9,18.1 	"/>
	<polygon class="st1" points="181.7,23.9 179.5,26 171,18.1 173.3,16 	"/>
</g>
<g>
	<rect x="446.9" y="69" class="st2" width="25" height="3"/>
	<rect x="468.9" y="64" class="st2" width="3" height="8"/>
	<rect x="446.9" y="64" class="st2" width="3" height="8"/>
</g>
<g>
	<rect x="457.9" y="48" class="st2" width="3" height="15.6"/>
	<polygon class="st2" points="459.5,66 457.2,63.9 465.7,56 467.9,58.1 	"/>
	<polygon class="st2" points="461.7,63.9 459.5,66 451,58.1 453.3,56 	"/>
</g>
<rect x="206.9" y="10" class="st1" width="26" height="3"/>
<rect x="206.9" y="19" class="st1" width="26" height="3"/>
<rect x="206.9" y="28" class="st1" width="26" height="3"/>
<path class="st1" d="M221.4,15L221.4,15c-1.9,0-3.5-1.6-3.5-3.5v0c0-1.9,1.6-3.5,3.5-3.5l0,0c1.9,0,3.5,1.6,3.5,3.5v0
	C224.9,13.4,223.4,15,221.4,15z"/>
<path class="st1" d="M212.4,24L212.4,24c-1.9,0-3.5-1.6-3.5-3.5v0c0-1.9,1.6-3.5,3.5-3.5l0,0c1.9,0,3.5,1.6,3.5,3.5v0
	C215.9,22.4,214.4,24,212.4,24z"/>
<path class="st1" d="M225.4,33L225.4,33c-1.9,0-3.5-1.6-3.5-3.5v0c0-1.9,1.6-3.5,3.5-3.5l0,0c1.9,0,3.5,1.6,3.5,3.5v0
	C228.9,31.4,227.4,33,225.4,33z"/>
<g>
	<path class="st0" d="M18.9,52v16h-9V55.2l3.2-3.2H18.9 M21.9,49h-10l-5,5v17h15V49L21.9,49z"/>
</g>
<g>
	<rect x="9.9" y="52" class="st0" width="4" height="4"/>
</g>
<g>
	<g>
		<path class="st0" d="M65.4,52v16h-11V55.2l3.2-3.2H65.4 M68.4,49h-12l-5,5v17h17V49L68.4,49z"/>
	</g>
	<g>
		<polygon class="st0" points="58.4,52 54.4,52 54.4,56 58.4,56 58.4,52 		"/>
	</g>
</g>
<g>
	<path class="st0" d="M27.7,52l3.2,3.2V68h-9V52H27.7 M28.9,49h-10v22h15V54L28.9,49L28.9,49z"/>
</g>
<g>
	<rect x="27" y="52" class="st0" width="4" height="4"/>
</g>
<polyline class="st3" points="174.8,48.3 186.3,59.8 174.7,71.3 "/>
<polyline class="st3" points="232.1,53.7 219.7,66.1 207.2,53.6 "/>
<polyline class="st3" points="247.2,66 259.6,53.6 272.1,66.1 "/>
<polyline class="st3" points="145.1,48.3 133.6,59.8 145.2,71.3 "/>
<polyline class="st3" points="288.8,61.4 288.8,70.7 298.1,70.7 "/>
<line class="st3" x1="298.1" y1="61.4" x2="288.8" y2="70.7"/>
<polyline class="st3" points="311.4,57.4 311.4,48.1 302.1,48.1 "/>
<line class="st3" x1="302.1" y1="57.4" x2="311.4" y2="48.1"/>
<g>
	<line class="st3" x1="329.8" y1="49.4" x2="352" y2="71.5"/>
	<line class="st3" x1="352" y1="49.4" x2="329.8" y2="71.5"/>
</g>
<rect x="367.9" y="48" class="st0" width="24" height="3"/>
<rect x="367.9" y="57" class="st0" width="24" height="3"/>
<rect x="367.9" y="66" class="st0" width="24" height="3"/>
<polyline class="st3" points="96.1,62.4 102.9,69.2 95.9,76.2 "/>
<path class="st0" d="M350.8,19.1l-2.8,1c0.3,0.9,0.5,1.9,0.5,2.9c0,4.7-3.8,8.5-8.5,8.5c-0.9,0-1.7-0.1-2.5-0.4
	c-0.4-0.1-0.7-0.3-1-0.4c-0.1-0.1-0.3-0.1-0.4-0.2c-0.2-0.1-0.4-0.2-0.6-0.4c-0.3-0.2-0.5-0.3-0.8-0.5c0,0-0.1,0-0.1-0.1
	c-1.9-1.6-3-3.9-3-6.5c0-4.7,3.8-8.4,8.4-8.5l-4.8,3.9l1.9,2.3l9.5-7.7l-9.7-7.9l-1.9,2.3l4.9,4c-6.2,0.1-11.3,5.2-11.3,11.5
	c0,4.7,2.8,8.8,7,10.6c0,0,0,0,0,0c0.3,0.1,0.7,0.3,1,0.4c0,0,0,0,0,0c0,0,0,0,0,0l0,0c1.1,0.3,2.2,0.5,3.4,0.5
	c6.3,0,11.5-5.2,11.5-11.5C351.5,21.7,351.2,20.4,350.8,19.1z"/>
<path class="st0" d="M369.2,19.1l2.8,1c-0.3,0.9-0.5,1.9-0.5,2.9c0,4.7,3.8,8.5,8.5,8.5c0.9,0,1.7-0.1,2.5-0.4
	c0.4-0.1,0.7-0.3,1-0.4c0.1-0.1,0.3-0.1,0.4-0.2c0.2-0.1,0.4-0.2,0.6-0.4c0.3-0.2,0.5-0.3,0.8-0.5c0,0,0.1,0,0.1-0.1
	c1.9-1.6,3-3.9,3-6.5c0-4.7-3.8-8.4-8.4-8.5l4.8,3.9l-1.9,2.3l-9.5-7.7l9.7-7.9l1.9,2.3l-4.9,4c6.2,0.1,11.3,5.2,11.3,11.5
	c0,4.7-2.8,8.8-7,10.6c0,0,0,0,0,0c-0.3,0.1-0.7,0.3-1,0.4c0,0,0,0,0,0c0,0,0,0,0,0l0,0c-1.1,0.3-2.2,0.5-3.4,0.5
	c-6.3,0-11.5-5.2-11.5-11.5C368.5,21.8,368.7,20.4,369.2,19.1z"/>
<path class="st0" d="M426.7,12.6c5.2,3.5,6.6,10.6,3.1,15.8c-2.6,3.9-7.2,5.8-11.7,5c0,0,0,0,0,0c-0.4-0.1-0.7-0.1-1.1-0.2
	c0,0,0,0,0,0c0,0,0,0,0,0l0,0c-1.1-0.3-2.1-0.8-3.1-1.4c-5.3-3.5-6.8-10.6-3.3-15.9c0.8-1.1,1.7-2.1,2.8-2.9l1.8,2.4
	c-0.8,0.6-1.5,1.3-2,2.2c-2.6,3.9-1.5,9.2,2.4,11.8c0.7,0.5,1.5,0.8,2.3,1.1c0.4,0.1,0.7,0.2,1.1,0.2c0.2,0,0.3,0,0.5,0.1
	c0.2,0,0.5,0,0.7,0c0.3,0,0.6,0,0.9,0c0,0,0.1,0,0.1,0c2.4-0.3,4.7-1.6,6.1-3.8c2.6-3.9,1.5-9.1-2.4-11.7L426.7,12.6z"/>
<g>
	
		<rect x="267.1" y="21.7" transform="matrix(0.7071 -0.7071 0.7071 0.7071 59.0768 198.0224)" class="st0" width="3" height="12.1"/>
	<circle class="st3" cx="258.5" cy="17.8" r="8.4"/>
	<line class="st3" x1="254.9" y1="17.5" x2="261.8" y2="17.5"/>
	<line class="st3" x1="258.4" y1="14.1" x2="258.4" y2="21"/>
</g>
<path class="st1" d="M71.9,30.9l-7.4-7.4c1.2-1.6,1.8-3.6,1.8-5.7c0-5.5-4.4-9.9-9.9-9.9c-5.5,0-9.9,4.4-9.9,9.9
	c0,5.5,4.4,9.9,9.9,9.9c2.2,0,4.3-0.8,6-2l7.3,7.3L71.9,30.9z M49.6,17.8c0-3.8,3.1-6.9,6.9-6.9s6.9,3.1,6.9,6.9s-3.1,6.9-6.9,6.9
	S49.6,21.6,49.6,17.8z"/>
<g>
	
		<rect x="307.1" y="21.7" transform="matrix(0.7071 -0.7071 0.7071 0.7071 70.7925 226.3067)" class="st0" width="3" height="12.1"/>
	<circle class="st3" cx="298.5" cy="17.8" r="8.4"/>
	<line class="st3" x1="294.9" y1="17.5" x2="301.8" y2="17.5"/>
</g>
<path class="st0" d="M424.9,20.7l-0.1-0.3l-4.7-12l-4.7,12l0-0.1c-0.2,0.5-0.3,1-0.3,1.6c0,2.7,2.2,4.9,4.9,4.9
	c2.7,0,4.9-2.2,4.9-4.9C425.1,21.5,425,21.1,424.9,20.7z M420.1,24c-1.2,0-2.2-1-2.2-2.2c0-1.2,1-2.2,2.2-2.2c1.2,0,2.2,1,2.2,2.2
	C422.3,23,421.4,24,420.1,24z"/>
<g>
	<rect x="407" y="51" class="st0" width="6" height="6"/>
</g>
<g>
	<rect x="417" y="51" class="st0" width="6" height="6"/>
</g>
<g>
	<rect x="427" y="51" class="st0" width="6" height="6"/>
</g>
<g>
	<rect x="407" y="61" class="st0" width="6" height="6"/>
</g>
<g>
	<rect x="417" y="61" class="st0" width="6" height="6"/>
</g>
<g>
	<rect x="427" y="61" class="st0" width="6" height="6"/>
</g>
<path class="st0" d="M471.9,30.9l-7.4-7.4c1.2-1.6,1.8-3.6,1.8-5.7c0-5.5-4.4-9.9-9.9-9.9c-5.5,0-9.9,4.4-9.9,9.9
	c0,5.5,4.4,9.9,9.9,9.9c2.2,0,4.3-0.8,6-2l7.3,7.3L471.9,30.9z M449.6,17.8c0-3.8,3.1-6.9,6.9-6.9s6.9,3.1,6.9,6.9s-3.1,6.9-6.9,6.9
	S449.6,21.6,449.6,17.8z"/>
<g>
	<g>
		<path class="st4" d="M499.6,12L499.6,12L499.6,12c-4.4,0-8,3.6-8,8c0,4.4,3.6,8,8,8l0,0h0c4.4,0,8-3.6,8-8
			C507.6,15.6,504,12,499.6,12z M499.6,26.5L499.6,26.5l0-13h0c3.6,0,6.5,2.9,6.5,6.5C506.1,23.6,503.2,26.5,499.6,26.5z"/>
	</g>
</g>
<g>
	<rect x="490" y="52.3" class="st5" width="19.2" height="17.5"/>
	<rect x="490.8" y="52.5" class="st4" width="4.4" height="17.5"/>
	<rect x="495.2" y="52.5" class="st6" width="4.4" height="17.5"/>
	<rect x="499.6" y="52.5" class="st7" width="4.4" height="17.5"/>
</g>
<g>
	<line class="st8" x1="580.7" y1="10.3" x2="580.7" y2="11.2"/>
	<line class="st8" x1="580.7" y1="28.8" x2="580.7" y2="29.7"/>
	<g>
		<circle class="st4" cx="580.7" cy="20" r="5.5"/>
	</g>
	<line class="st8" x1="587.6" y1="13.2" x2="587" y2="13.8"/>
	<line class="st8" x1="574.5" y1="26.2" x2="573.9" y2="26.8"/>
	<line class="st8" x1="587.6" y1="26.8" x2="587" y2="26.2"/>
	<line class="st8" x1="574.5" y1="13.8" x2="573.9" y2="13.2"/>
	<line class="st8" x1="590.4" y1="20" x2="589.6" y2="20"/>
	<line class="st8" x1="571.9" y1="20" x2="571.1" y2="20"/>
</g>
<g>
	<rect x="531.3" y="12" class="st4" width="3.8" height="3.8"/>
	<rect x="537.4" y="12" class="st9" width="3.8" height="3.8"/>
	<rect x="543.5" y="12" class="st10" width="3.8" height="3.8"/>
	<rect x="531.3" y="18.1" class="st11" width="3.8" height="3.8"/>
	<rect x="537.4" y="18.1" class="st12" width="3.8" height="3.8"/>
	<rect x="543.5" y="18.1" class="st11" width="3.8" height="3.8"/>
	<rect x="531.3" y="24.2" class="st13" width="3.8" height="3.8"/>
	<rect x="537.4" y="24.2" class="st9" width="3.8" height="3.8"/>
	<rect x="543.5" y="24.2" class="st4" width="3.8" height="3.8"/>
</g>
<g>
	<rect x="572.1" y="54.5" class="st5" width="14.5" height="13.1"/>
</g>
<g>
	<g>
		<polyline class="st14" points="542.2,53.5 538.8,55.9 542.2,58.3 		"/>
	</g>
	<path class="st14" d="M540.7,55.7c3.5,0,6.4,2.9,6.4,6.4c0,3.5-2.9,6.4-6.4,6.4c-3.5,0-6.4-2.9-6.4-6.4"/>
</g>
<g>
	<polyline class="st4" points="572.1,67.7 572.1,54.5 586.6,54.5 	"/>
</g>
</svg>
