<svg id="Layer_1" xmlns="http://www.w3.org/2000/svg" width="640" height="80" viewBox="0 0 640 80"><style>.st0{fill:#fff}.st1{fill:#3e3a37}.st2{fill:#a5003b}.st3{fill:none;stroke:#fff;stroke-width:3;stroke-miterlimit:10}.st4{fill:#3d3838}.st5{fill:none;stroke:#3d3838;stroke-width:1.5;stroke-miterlimit:10}.st6,.st7{opacity:.66;fill:#3d3838}.st7{opacity:.33}.st8{fill:none;stroke:#3d3838;stroke-width:1.5;stroke-linecap:round;stroke-miterlimit:10}.st10,.st9{opacity:.5;fill:#3d3838}.st10{opacity:.3}.st11,.st12,.st13{opacity:.6;fill:#3d3838}.st12,.st13{opacity:.2}.st13{opacity:.4}.st14{fill:none;stroke:#3d3838;stroke-width:1.5;stroke-linecap:round;stroke-linejoin:round;stroke-miterlimit:10}</style><path class="st0" d="M103.1 49l-3.5 3.5-3.5-3.5h-10v22h5.2v-3h-2.2V52h5v4h4v3.9h3V56h4v-4h5v16h-2.4v3h5.4V49z"/><path class="st1" d="M6.6 8h4v3h-4zM14.6 8h18v3h-18zM96.6 13h4v3h-4zM95.6 24h7v3h-7zM95.6 18h4v3h-4z"/><path class="st1" d="M97.6 18h3v9h-3zM6.6 15h4v3h-4zM14.6 15h18v3h-18zM6.6 22h4v3h-4zM14.6 22h18v3h-18zM6.6 29h4v3h-4zM14.6 29h18v3h-18z"/><path class="st1" d="M98.6 10.5c5.5 0 10 4.5 10 10s-4.5 10-10 10-10-4.5-10-10 4.5-10 10-10m0-3c-7.2 0-13 5.8-13 13s5.8 13 13 13 13-5.8 13-13-5.8-13-13-13zM138.6 8h3v24h-3z"/><path class="st1" d="M135.6 8h9v3h-9zM125.6 8h8v3h-8zM125.6 15h8v3h-8zM125.6 22h8v3h-8zM125.6 29h8v3h-8zM146.6 8h8v3h-8zM146.6 15h8v3h-8zM146.6 22h8v3h-8zM146.6 29h8v3h-8zM135.6 29h9v3h-9zM166.6 29h25v3h-25z"/><path class="st1" d="M188.6 24h3v8h-3zM166.6 24h3v8h-3zM177.6 8h3v15.6h-3z"/><path class="st1" d="M179.2 26l-2.3-2.1 8.5-7.9 2.2 2.1z"/><path class="st1" d="M181.4 23.9l-2.2 2.1-8.5-7.9L173 16z"/><path class="st2" d="M446.6 69h25v3h-25z"/><path class="st2" d="M468.6 64h3v8h-3zM446.6 64h3v8h-3zM457.6 48h3v15.6h-3z"/><path class="st2" d="M459.2 66l-2.3-2.1 8.5-7.9 2.2 2.1z"/><path class="st2" d="M461.4 63.9l-2.2 2.1-8.5-7.9L453 56z"/><path class="st1" d="M206.6 10h26v3h-26zM206.6 19h26v3h-26zM206.6 28h26v3h-26z"/><path class="st1" d="M221.1 15c-1.9 0-3.5-1.6-3.5-3.5s1.6-3.5 3.5-3.5 3.5 1.6 3.5 3.5-1.5 3.5-3.5 3.5zM212.1 24c-1.9 0-3.5-1.6-3.5-3.5s1.6-3.5 3.5-3.5 3.5 1.6 3.5 3.5-1.5 3.5-3.5 3.5zM225.1 33c-1.9 0-3.5-1.6-3.5-3.5s1.6-3.5 3.5-3.5 3.5 1.6 3.5 3.5-1.5 3.5-3.5 3.5z"/><path class="st0" d="M18.6 52v16h-9V55.2l3.2-3.2h5.8m3-3h-10l-5 5v17h15V49z"/><path class="st0" d="M9.6 52h4v4h-4zM65.1 52v16h-11V55.2l3.2-3.2h7.8m3-3h-12l-5 5v17h17V49z"/><path class="st0" d="M58.1 52h-4v4h4v-4zM27.4 52l3.2 3.2V68h-9V52h5.8m1.2-3h-10v22h15V54l-5-5z"/><path class="st0" d="M26.7 52h4v4h-4z"/><path class="st3" d="M174.5 48.3L186 59.8l-11.6 11.5M231.8 53.7l-12.4 12.4-12.5-12.5M246.9 66l12.4-12.4 12.5 12.5M144.8 48.3l-11.5 11.5 11.6 11.5M288.5 61.4v9.3h9.3M295.8 63.4l-7.3 7.3M311.1 57.4v-9.3h-9.3M303.8 55.4l7.3-7.3M329.5 49.4l22.2 22.1M351.7 49.4l-22.2 22.1"/><path class="st0" d="M367.6 48h24v3h-24zM367.6 57h24v3h-24zM367.6 66h24v3h-24z"/><path class="st3" d="M95.8 62.4l6.8 6.8-7 7"/><path class="st0" d="M350.5 19.1l-2.8 1c.3.9.5 1.9.5 2.9 0 4.7-3.8 8.5-8.5 8.5-.9 0-1.7-.1-2.5-.4-.4-.1-.7-.3-1-.4-.1-.1-.3-.1-.4-.2-.2-.1-.4-.2-.6-.4-.3-.2-.5-.3-.8-.5 0 0-.1 0-.1-.1-1.9-1.6-3-3.9-3-6.5 0-4.7 3.8-8.4 8.4-8.5l-4.8 3.9 1.9 2.3 9.5-7.7-9.7-7.9-1.9 2.3 4.9 4c-6.2.1-11.3 5.2-11.3 11.5 0 4.7 2.8 8.8 7 10.6.3.1.7.3 1 .4 1.1.3 2.2.5 3.4.5 6.3 0 11.5-5.2 11.5-11.5 0-1.2-.3-2.5-.7-3.8zM368.9 19.1l2.8 1c-.3.9-.5 1.9-.5 2.9 0 4.7 3.8 8.5 8.5 8.5.9 0 1.7-.1 2.5-.4.4-.1.7-.3 1-.4.1-.1.3-.1.4-.2.2-.1.4-.2.6-.4.3-.2.5-.3.8-.5 0 0 .1 0 .1-.1 1.9-1.6 3-3.9 3-6.5 0-4.7-3.8-8.4-8.4-8.5l4.8 3.9-1.9 2.3-9.5-7.7 9.7-7.9 1.9 2.3-4.9 4c6.2.1 11.3 5.2 11.3 11.5 0 4.7-2.8 8.8-7 10.6-.3.1-.7.3-1 .4-1.1.3-2.2.5-3.4.5-6.3 0-11.5-5.2-11.5-11.5 0-1.1.2-2.5.7-3.8zM426.4 12.6c5.2 3.5 6.6 10.6 3.1 15.8-2.6 3.9-7.2 5.8-11.7 5-.4-.1-.7-.1-1.1-.2-1.1-.3-2.1-.8-3.1-1.4-5.3-3.5-6.8-10.6-3.3-15.9.8-1.1 1.7-2.1 2.8-2.9l1.8 2.4c-.8.6-1.5 1.3-2 2.2-2.6 3.9-1.5 9.2 2.4 11.8.7.5 1.5.8 2.3 1.1.4.1.7.2 1.1.2.2 0 .3 0 .5.1H420.9c2.4-.3 4.7-1.6 6.1-3.8 2.6-3.9 1.5-9.1-2.4-11.7l1.8-2.7z"/><path transform="rotate(-45.001 268.279 27.702)" class="st0" d="M266.8 21.7h3v12.1h-3z"/><circle class="st3" cx="258.2" cy="17.8" r="8.4"/><path class="st3" d="M254.6 17.5h6.9M258.1 14.1V21"/><path class="st1" d="M71.6 30.9l-7.4-7.4c1.2-1.6 1.8-3.6 1.8-5.7 0-5.5-4.4-9.9-9.9-9.9s-9.9 4.4-9.9 9.9 4.4 9.9 9.9 9.9c2.2 0 4.3-.8 6-2l7.3 7.3 2.2-2.1zM49.3 17.8c0-3.8 3.1-6.9 6.9-6.9s6.9 3.1 6.9 6.9-3.1 6.9-6.9 6.9-6.9-3.1-6.9-6.9z"/><path transform="rotate(-45.001 308.279 27.703)" class="st0" d="M306.8 21.7h3v12.1h-3z"/><circle class="st3" cx="298.2" cy="17.8" r="8.4"/><path class="st3" d="M294.6 17.5h6.9"/><path class="st0" d="M424.6 20.7l-.1-.3-4.7-12-4.7 12v-.1c-.2.5-.3 1-.3 1.6 0 2.7 2.2 4.9 4.9 4.9s4.9-2.2 4.9-4.9c.2-.4.1-.8 0-1.2zm-4.8 3.3c-1.2 0-2.2-1-2.2-2.2 0-1.2 1-2.2 2.2-2.2s2.2 1 2.2 2.2c.1 1.2-.9 2.2-2.2 2.2zM406.7 46h6v6h-6zM416.7 46h6v6h-6zM426.7 46h6v6h-6zM406.7 56h6v6h-6zM416.7 56h6v6h-6zM426.7 56h6v6h-6zM406.7 66h6v6h-6zM416.7 66h6v6h-6zM426.7 66h6v6h-6zM471.6 30.9l-7.4-7.4c1.2-1.6 1.8-3.6 1.8-5.7 0-5.5-4.4-9.9-9.9-9.9s-9.9 4.4-9.9 9.9 4.4 9.9 9.9 9.9c2.2 0 4.3-.8 6-2l7.3 7.3 2.2-2.1zm-22.3-13.1c0-3.8 3.1-6.9 6.9-6.9s6.9 3.1 6.9 6.9-3.1 6.9-6.9 6.9-6.9-3.1-6.9-6.9z"/><path class="st4" d="M499.3 12c-4.4 0-8 3.6-8 8s3.6 8 8 8 8-3.6 8-8-3.6-8-8-8zm0 14.5v-13c3.6 0 6.5 2.9 6.5 6.5s-2.9 6.5-6.5 6.5z"/><g><path class="st5" d="M489.7 52.3h19.2v17.5h-19.2z"/><path class="st4" d="M490.5 52.5h4.4V70h-4.4z"/><path class="st6" d="M494.9 52.5h4.4V70h-4.4z"/><path class="st7" d="M499.3 52.5h4.4V70h-4.4z"/></g><g><path class="st8" d="M580.4 10.3v.9M580.4 28.8v.9"/><circle class="st4" cx="580.4" cy="20" r="5.5"/><path class="st8" d="M587.3 13.2l-.6.6M574.2 26.2l-.6.6M587.3 26.8l-.6-.6M574.2 13.8l-.6-.6M590.1 20h-.8M571.6 20h-.8"/></g><g><path class="st4" d="M531 12h3.8v3.8H531z"/><path class="st9" d="M537.1 12h3.8v3.8h-3.8z"/><path class="st10" d="M543.2 12h3.8v3.8h-3.8z"/><path class="st11" d="M531 18.1h3.8v3.8H531z"/><path class="st12" d="M537.1 18.1h3.8v3.8h-3.8z"/><path class="st11" d="M543.2 18.1h3.8v3.8h-3.8z"/><path class="st13" d="M531 24.2h3.8V28H531z"/><path class="st9" d="M537.1 24.2h3.8V28h-3.8z"/><path class="st4" d="M543.2 24.2h3.8V28h-3.8z"/></g><g><path class="st5" d="M571.8 54.5h14.5v13.1h-14.5z"/></g><g><path class="st14" d="M541.9 53.5l-3.4 2.4 3.4 2.4"/><path class="st14" d="M540.4 55.7c3.5 0 6.4 2.9 6.4 6.4 0 3.5-2.9 6.4-6.4 6.4-3.5 0-6.4-2.9-6.4-6.4"/></g><g><path class="st4" d="M571.8 67.7V54.5h14.5"/></g><path class="st3" d="M297.8 48.1h-9.3v9.3M295.8 55.4l-7.3-7.3M301.8 70.7h9.3v-9.3M303.8 63.4l7.3 7.3M616.8 71.7v-9.3h-9.3M609.5 69.7l7.3-7.3M622.8 47.1v9.3h9.3M630.1 49.1l-7.3 7.3M607.5 56.4h9.3v-9.3M609.5 49.1l7.3 7.3M632.1 62.4h-9.3v9.3M630.1 69.7l-7.3-7.3"/></svg>