<?xml version="1.0" encoding="utf-8"?>
<!-- Generator: Adobe Illustrator 21.1.0, SVG Export Plug-In . SVG Version: 6.00 Build 0)  -->
<svg version="1.1" id="Layer_1" xmlns="http://www.w3.org/2000/svg" xmlns:xlink="http://www.w3.org/1999/xlink" x="0px" y="0px"
	 width="440px" height="80px" viewBox="0 0 440 80" style="enable-background:new 0 0 440 80;" xml:space="preserve">
<style type="text/css">
	.st0{fill:#FFFFFF;}
	.st1{fill:#3E3A37;}
	.st2{fill:none;stroke:#FFFFFF;stroke-width:3;stroke-miterlimit:10;}
</style>
<g>
	<polygon class="st0" points="103.4,49 99.9,52.5 96.4,49 86.4,49 86.4,71 91.6,71 91.6,68 89.4,68 89.4,52 94.4,52 94.4,56 
		98.4,56 98.4,59.9 101.4,59.9 101.4,56 105.4,56 105.4,52 110.4,52 110.4,68 108,68 108,71 113.4,71 113.4,49 	"/>
</g>
<g>
	<rect x="6.9" y="8" class="st1" width="4" height="3"/>
</g>
<g>
	<rect x="14.9" y="8" class="st1" width="18" height="3"/>
</g>
<g>
	<g>
		<rect x="96.9" y="13" class="st1" width="4" height="3"/>
	</g>
	<g>
		<rect x="95.9" y="24" class="st1" width="7" height="3"/>
	</g>
	<g>
		<rect x="95.9" y="18" class="st1" width="4" height="3"/>
	</g>
	<g>
		<rect x="97.9" y="18" class="st1" width="3" height="9"/>
	</g>
</g>
<g>
	<rect x="6.9" y="15" class="st1" width="4" height="3"/>
</g>
<g>
	<rect x="14.9" y="15" class="st1" width="18" height="3"/>
</g>
<g>
	<rect x="6.9" y="22" class="st1" width="4" height="3"/>
</g>
<g>
	<rect x="14.9" y="22" class="st1" width="18" height="3"/>
</g>
<g>
	<rect x="6.9" y="29" class="st1" width="4" height="3"/>
</g>
<g>
	<rect x="14.9" y="29" class="st1" width="18" height="3"/>
</g>
<path class="st1" d="M57.9,11c5,0,9,4,9,9s-4,9-9,9s-9-4-9-9S52.9,11,57.9,11 M57.9,8c-6.6,0-12,5.4-12,12s5.4,12,12,12
	s12-5.4,12-12S64.5,8,57.9,8L57.9,8z"/>
<g>
	<path class="st1" d="M98.9,10.5c5.5,0,10,4.5,10,10s-4.5,10-10,10s-10-4.5-10-10S93.4,10.5,98.9,10.5 M98.9,7.5
		c-7.2,0-13,5.8-13,13s5.8,13,13,13s13-5.8,13-13S106.1,7.5,98.9,7.5L98.9,7.5z"/>
</g>
<rect x="66.4" y="24.7" transform="matrix(0.7071 -0.7071 0.7071 0.7071 -0.5993 56.4925)" class="st1" width="3" height="8.5"/>
<path class="st0" d="M257.9,11c5,0,9,4,9,9s-4,9-9,9c-5,0-9-4-9-9S252.9,11,257.9,11 M257.9,8c-6.6,0-12,5.4-12,12s5.4,12,12,12
	c6.6,0,12-5.4,12-12S264.5,8,257.9,8L257.9,8z"/>
<rect x="266.4" y="24.7" transform="matrix(0.7071 -0.7071 0.7071 0.7071 57.9793 197.9138)" class="st0" width="3" height="8.5"/>
<path class="st0" d="M297.9,11c5,0,9,4,9,9s-4,9-9,9c-5,0-9-4-9-9S292.9,11,297.9,11 M297.9,8c-6.6,0-12,5.4-12,12s5.4,12,12,12
	c6.6,0,12-5.4,12-12S304.5,8,297.9,8L297.9,8z"/>
<rect x="306.4" y="24.7" transform="matrix(0.7071 -0.7071 0.7071 0.7071 69.695 226.1981)" class="st0" width="3" height="8.5"/>
<rect x="138.9" y="8" class="st1" width="3" height="24"/>
<rect x="135.9" y="8" class="st1" width="9" height="3"/>
<rect x="125.9" y="8" class="st1" width="8" height="3"/>
<rect x="125.9" y="15" class="st1" width="8" height="3"/>
<rect x="125.9" y="22" class="st1" width="8" height="3"/>
<rect x="125.9" y="29" class="st1" width="8" height="3"/>
<rect x="146.9" y="8" class="st1" width="8" height="3"/>
<rect x="146.9" y="15" class="st1" width="8" height="3"/>
<rect x="146.9" y="22" class="st1" width="8" height="3"/>
<rect x="146.9" y="29" class="st1" width="8" height="3"/>
<rect x="135.9" y="29" class="st1" width="9" height="3"/>
<g>
	<rect x="166.9" y="29" class="st1" width="25" height="3"/>
	<rect x="188.9" y="24" class="st1" width="3" height="8"/>
	<rect x="166.9" y="24" class="st1" width="3" height="8"/>
</g>
<g>
	<rect x="177.9" y="8" class="st1" width="3" height="15.6"/>
	<polygon class="st1" points="179.5,26 177.2,23.9 185.7,16 187.9,18.1 	"/>
	<polygon class="st1" points="181.7,23.9 179.5,26 171,18.1 173.3,16 	"/>
</g>
<rect x="206.9" y="10" class="st1" width="26" height="3"/>
<rect x="206.9" y="19" class="st1" width="26" height="3"/>
<rect x="206.9" y="28" class="st1" width="26" height="3"/>
<path class="st1" d="M221.4,15L221.4,15c-1.9,0-3.5-1.6-3.5-3.5v0c0-1.9,1.6-3.5,3.5-3.5l0,0c1.9,0,3.5,1.6,3.5,3.5v0
	C224.9,13.4,223.4,15,221.4,15z"/>
<path class="st1" d="M212.4,24L212.4,24c-1.9,0-3.5-1.6-3.5-3.5v0c0-1.9,1.6-3.5,3.5-3.5l0,0c1.9,0,3.5,1.6,3.5,3.5v0
	C215.9,22.4,214.4,24,212.4,24z"/>
<path class="st1" d="M225.4,33L225.4,33c-1.9,0-3.5-1.6-3.5-3.5v0c0-1.9,1.6-3.5,3.5-3.5l0,0c1.9,0,3.5,1.6,3.5,3.5v0
	C228.9,31.4,227.4,33,225.4,33z"/>
<g>
	<path class="st0" d="M346.1,29l2.1,2.1c1.6-1.7,2.7-3.8,3.1-6.1l-3-0.5C348.1,26.2,347.3,27.8,346.1,29z"/>
	<path class="st0" d="M340,31.6v3c2.3,0,4.6-0.7,6.5-2l-1.7-2.5C343.3,31.1,341.7,31.6,340,31.6z"/>
	<path class="st0" d="M351.5,22.8c0-1.2-0.3-2.5-0.7-3.6l-2.8,1c0.3,0.9,0.5,1.8,0.5,2.7L351.5,22.8z"/>
	<path class="st0" d="M331.5,23.1c0-4.7,3.8-8.5,8.5-8.5l-4.9,3.9l1.9,2.3l9.5-7.7l-9.7-7.9l-1.9,2.3l4.9,4
		c-6.2,0.1-11.3,5.2-11.3,11.5c0,5.1,3.3,9.5,8.1,11l0.9-2.9C333.9,30.1,331.5,26.8,331.5,23.1z"/>
</g>
<g>
	<path class="st0" d="M373.8,29.1l-2.1,2.1c-1.6-1.7-2.7-3.8-3.1-6.1l3-0.5C371.8,26.3,372.6,27.9,373.8,29.1z"/>
	<path class="st0" d="M379.9,31.7v3c-2.3,0-4.6-0.7-6.5-2l1.7-2.5C376.6,31.1,378.2,31.7,379.9,31.7z"/>
	<path class="st0" d="M368.4,22.8c0-1.2,0.3-2.5,0.7-3.6l2.8,1c-0.3,0.9-0.5,1.8-0.5,2.7L368.4,22.8z"/>
	<path class="st0" d="M388.4,23.1c0-4.7-3.8-8.5-8.5-8.5l4.9,3.9l-1.9,2.3l-9.5-7.7l9.7-7.9l1.9,2.3l-4.9,4
		c6.2,0.1,11.3,5.2,11.3,11.5c0,5.1-3.3,9.5-8.1,11l-0.9-2.9C386,30.2,388.4,26.9,388.4,23.1z"/>
</g>
<g>
	<rect x="251.9" y="18.5" class="st0" width="12" height="3"/>
	
		<rect x="251.9" y="18.5" transform="matrix(4.486817e-11 -1 1 4.486817e-11 237.9231 277.8625)" class="st0" width="12" height="3"/>
</g>
<rect x="291.9" y="18.5" class="st0" width="12" height="3"/>
<g>
	<path class="st0" d="M18.9,52v16h-9V55.2l3.2-3.2H18.9 M21.9,49h-10l-5,5v17h15V49L21.9,49z"/>
</g>
<g>
	<rect x="9.9" y="52" class="st0" width="4" height="4"/>
</g>
<g>
	<g>
		<path class="st0" d="M65.4,52v16h-11V55.2l3.2-3.2H65.4 M68.4,49h-12l-5,5v17h17V49L68.4,49z"/>
	</g>
	<g>
		<polygon class="st0" points="58.4,52 54.4,52 54.4,56 58.4,56 58.4,52 		"/>
	</g>
</g>
<g>
	<path class="st0" d="M27.7,52l3.2,3.2V68h-9V52H27.7 M28.9,49h-10v22h15V54L28.9,49L28.9,49z"/>
</g>
<g>
	<rect x="27" y="52" class="st0" width="4" height="4"/>
</g>
<polyline class="st2" points="174.8,48.3 186.3,59.8 174.7,71.3 "/>
<polyline class="st2" points="232.1,53.7 219.7,66.1 207.2,53.6 "/>
<polyline class="st2" points="247.2,66 259.6,53.6 272.1,66.1 "/>
<polyline class="st2" points="145.1,48.3 133.6,59.8 145.2,71.3 "/>
<polyline class="st2" points="288.8,61.4 288.8,70.7 298.1,70.7 "/>
<line class="st2" x1="298.1" y1="61.4" x2="288.8" y2="70.7"/>
<polyline class="st2" points="311.4,57.4 311.4,48.1 302.1,48.1 "/>
<line class="st2" x1="302.1" y1="57.4" x2="311.4" y2="48.1"/>
<g>
	<line class="st2" x1="329.8" y1="49.4" x2="352" y2="71.5"/>
	<line class="st2" x1="352" y1="49.4" x2="329.8" y2="71.5"/>
</g>
<rect x="377.7" y="45.9" class="st0" width="6" height="6"/>
<rect x="377.7" y="56.9" class="st0" width="6" height="6"/>
<rect x="377.7" y="67.9" class="st0" width="6" height="6"/>
<g>
	<rect x="419" y="9.5" class="st0" width="3" height="12.6"/>
	<polygon class="st0" points="420.5,7 422.7,9.1 414.3,17 412,14.9 	"/>
	<polygon class="st0" points="418.2,9.1 420.5,7 428.9,14.9 426.7,17 	"/>
</g>
<polyline class="st2" points="416.4,33.9 416.4,25.5 424.5,31.9 424.5,23.7 "/>
<polyline class="st2" points="96.1,62.4 102.9,69.2 95.9,76.2 "/>
</svg>
